<svg xmlns="http://www.w3.org/2000/svg" xmlns:xlink="http://www.w3.org/1999/xlink" version="1.1" x="0px" y="0px" viewBox="0 0 100 125" enable-background="new 0 0 100 100" xml:space="preserve"><path d="M48.528,85.097L50,95l1.472-9.903c3.987-26.81,6.815-29.639,33.625-33.625L95,50l-9.902-1.472  c-26.81-3.986-29.639-6.815-33.625-33.625L50,5l-1.472,9.903c-3.987,26.81-6.815,29.639-33.625,33.625L5,50l9.902,1.472  C41.713,55.459,44.541,58.287,48.528,85.097z M42.386,42.386c3.896-3.895,5.919-9.352,7.614-18.181  c1.695,8.829,3.718,14.285,7.614,18.181c3.895,3.895,9.352,5.919,18.181,7.614c-8.829,1.695-14.285,3.719-18.181,7.614  c-3.896,3.895-5.919,9.352-7.614,18.181c-1.695-8.829-3.718-14.285-7.614-18.181c-3.895-3.895-9.352-5.919-18.181-7.614  C33.034,48.305,38.491,46.281,42.386,42.386z"/></svg>